<mxfile host="app.diagrams.net" modified="2024-07-09T07:44:47.442Z" agent="Mozilla/5.0 (Macintosh; Intel Mac OS X 10_15_7) AppleWebKit/537.36 (KHTML, like Gecko) Chrome/126.0.0.0 Safari/537.36" etag="RIDVngoNLuY-lkmTVfT2" version="24.6.4" type="github">
  <diagram id="6a731a19-8d31-9384-78a2-239565b7b9f0" name="Page-1">
    <mxGraphModel dx="1004" dy="646" grid="1" gridSize="10" guides="1" tooltips="1" connect="1" arrows="1" fold="1" page="1" pageScale="1" pageWidth="1169" pageHeight="827" background="none" math="0" shadow="0">
      <root>
        <mxCell id="0" />
        <mxCell id="1" parent="0" />
        <mxCell id="45" value="" style="edgeStyle=elbowEdgeStyle;elbow=horizontal;exitX=1;exitY=0.5;exitPerimeter=0;entryX=0.905;entryY=0.5;entryPerimeter=0;fontStyle=1;strokeColor=#003366;strokeWidth=1;html=1;" parent="1" target="34" edge="1">
          <mxGeometry width="100" height="100" as="geometry">
            <mxPoint x="380.5" y="1119.25" as="sourcePoint" />
            <mxPoint x="100" as="targetPoint" />
            <Array as="points">
              <mxPoint x="950" y="1320" />
            </Array>
          </mxGeometry>
        </mxCell>
        <mxCell id="U8EF0f1NBM-hAYtEsByM-294" value="시작" style="whiteSpace=wrap;strokeWidth=2;" vertex="1" parent="1">
          <mxGeometry x="169" y="20" width="43" height="34" as="geometry" />
        </mxCell>
        <mxCell id="U8EF0f1NBM-hAYtEsByM-295" value="로그인_회원가입" style="whiteSpace=wrap;strokeWidth=2;" vertex="1" parent="1">
          <mxGeometry x="131" y="104" width="120" height="34" as="geometry" />
        </mxCell>
        <mxCell id="U8EF0f1NBM-hAYtEsByM-296" value="로그인" style="whiteSpace=wrap;strokeWidth=2;" vertex="1" parent="1">
          <mxGeometry x="80" y="206" width="57" height="34" as="geometry" />
        </mxCell>
        <mxCell id="U8EF0f1NBM-hAYtEsByM-297" value="회원가입" style="whiteSpace=wrap;strokeWidth=2;" vertex="1" parent="1">
          <mxGeometry x="238" y="206" width="70" height="34" as="geometry" />
        </mxCell>
        <mxCell id="U8EF0f1NBM-hAYtEsByM-298" value="알고리즘_영상" style="whiteSpace=wrap;strokeWidth=2;" vertex="1" parent="1">
          <mxGeometry x="137" y="289" width="106" height="34" as="geometry" />
        </mxCell>
        <mxCell id="U8EF0f1NBM-hAYtEsByM-299" value="인기_급상승_쇼츠" style="whiteSpace=wrap;strokeWidth=2;" vertex="1" parent="1">
          <mxGeometry x="38" y="391" width="129" height="34" as="geometry" />
        </mxCell>
        <mxCell id="U8EF0f1NBM-hAYtEsByM-300" value="최근_많이_구매한_상품" style="whiteSpace=wrap;strokeWidth=2;" vertex="1" parent="1">
          <mxGeometry x="288" y="391" width="165" height="34" as="geometry" />
        </mxCell>
        <mxCell id="U8EF0f1NBM-hAYtEsByM-301" value="인기_급상승_영상_시청" style="whiteSpace=wrap;strokeWidth=2;" vertex="1" parent="1">
          <mxGeometry x="20" y="475" width="165" height="34" as="geometry" />
        </mxCell>
        <mxCell id="U8EF0f1NBM-hAYtEsByM-302" value="최근_구매_상품_콘텐츠" style="whiteSpace=wrap;strokeWidth=2;" vertex="1" parent="1">
          <mxGeometry x="288" y="475" width="165" height="34" as="geometry" />
        </mxCell>
        <mxCell id="U8EF0f1NBM-hAYtEsByM-303" value="책_내용_움직이는_웹툰" style="whiteSpace=wrap;strokeWidth=2;" vertex="1" parent="1">
          <mxGeometry x="83" y="577" width="165" height="34" as="geometry" />
        </mxCell>
        <mxCell id="U8EF0f1NBM-hAYtEsByM-304" value="책_내용_드라마화" style="whiteSpace=wrap;strokeWidth=2;" vertex="1" parent="1">
          <mxGeometry x="297" y="577" width="129" height="34" as="geometry" />
        </mxCell>
        <mxCell id="U8EF0f1NBM-hAYtEsByM-305" value="도서_상세_설명" style="whiteSpace=wrap;strokeWidth=2;" vertex="1" parent="1">
          <mxGeometry x="232" y="660" width="115" height="34" as="geometry" />
        </mxCell>
        <mxCell id="U8EF0f1NBM-hAYtEsByM-306" value="장바구니에_추가" style="whiteSpace=wrap;strokeWidth=2;" vertex="1" parent="1">
          <mxGeometry x="320" y="744" width="120" height="34" as="geometry" />
        </mxCell>
        <mxCell id="U8EF0f1NBM-hAYtEsByM-307" value="장바구니_확인" style="whiteSpace=wrap;strokeWidth=2;" vertex="1" parent="1">
          <mxGeometry x="298" y="827" width="165" height="34" as="geometry" />
        </mxCell>
        <mxCell id="U8EF0f1NBM-hAYtEsByM-308" value="결제" style="whiteSpace=wrap;strokeWidth=2;" vertex="1" parent="1">
          <mxGeometry x="359" y="911" width="43" height="34" as="geometry" />
        </mxCell>
        <mxCell id="U8EF0f1NBM-hAYtEsByM-309" value="구매_완료_및_배송_추적" style="whiteSpace=wrap;strokeWidth=2;" vertex="1" parent="1">
          <mxGeometry x="294" y="994" width="173" height="34" as="geometry" />
        </mxCell>
        <mxCell id="U8EF0f1NBM-hAYtEsByM-310" value="포인트_지급" style="whiteSpace=wrap;strokeWidth=2;" vertex="1" parent="1">
          <mxGeometry x="285" y="1096" width="93" height="34" as="geometry" />
        </mxCell>
        <mxCell id="U8EF0f1NBM-hAYtEsByM-311" value="종료" style="whiteSpace=wrap;strokeWidth=2;" vertex="1" parent="1">
          <mxGeometry x="443" y="1096" width="43" height="34" as="geometry" />
        </mxCell>
        <mxCell id="U8EF0f1NBM-hAYtEsByM-312" value="상품_콘텐츠_시청" style="whiteSpace=wrap;strokeWidth=2;" vertex="1" parent="1">
          <mxGeometry x="478" y="577" width="93" height="34" as="geometry" />
        </mxCell>
        <mxCell id="U8EF0f1NBM-hAYtEsByM-313" value="상품_상세_설명" style="whiteSpace=wrap;strokeWidth=2;" vertex="1" parent="1">
          <mxGeometry x="467" y="660" width="115" height="34" as="geometry" />
        </mxCell>
        <mxCell id="U8EF0f1NBM-hAYtEsByM-314" value="" style="curved=1;startArrow=none;endArrow=block;exitX=0.51;exitY=0.99;entryX=0.5;entryY=-0.01;rounded=0;" edge="1" parent="1" source="U8EF0f1NBM-hAYtEsByM-294" target="U8EF0f1NBM-hAYtEsByM-295">
          <mxGeometry relative="1" as="geometry">
            <Array as="points" />
          </mxGeometry>
        </mxCell>
        <mxCell id="U8EF0f1NBM-hAYtEsByM-315" value="이미_계정이_있는_경우" style="curved=1;startArrow=none;endArrow=block;exitX=0.27;exitY=0.97;entryX=0.49;entryY=-0.01;rounded=0;" edge="1" parent="1" source="U8EF0f1NBM-hAYtEsByM-295" target="U8EF0f1NBM-hAYtEsByM-296">
          <mxGeometry relative="1" as="geometry">
            <Array as="points">
              <mxPoint x="108" y="171" />
            </Array>
          </mxGeometry>
        </mxCell>
        <mxCell id="U8EF0f1NBM-hAYtEsByM-316" value="새로운_사용자인_경우" style="curved=1;startArrow=none;endArrow=block;exitX=0.72;exitY=0.97;entryX=0.51;entryY=-0.01;rounded=0;" edge="1" parent="1" source="U8EF0f1NBM-hAYtEsByM-295" target="U8EF0f1NBM-hAYtEsByM-297">
          <mxGeometry relative="1" as="geometry">
            <Array as="points">
              <mxPoint x="273" y="171" />
            </Array>
          </mxGeometry>
        </mxCell>
        <mxCell id="U8EF0f1NBM-hAYtEsByM-317" value="" style="curved=1;startArrow=none;endArrow=block;exitX=0.49;exitY=0.97;entryX=0.19;entryY=0;rounded=0;" edge="1" parent="1" source="U8EF0f1NBM-hAYtEsByM-296" target="U8EF0f1NBM-hAYtEsByM-298">
          <mxGeometry relative="1" as="geometry">
            <Array as="points">
              <mxPoint x="108" y="264" />
            </Array>
          </mxGeometry>
        </mxCell>
        <mxCell id="U8EF0f1NBM-hAYtEsByM-318" value="" style="curved=1;startArrow=none;endArrow=block;exitX=0.51;exitY=0.97;entryX=0.82;entryY=0;rounded=0;" edge="1" parent="1" source="U8EF0f1NBM-hAYtEsByM-297" target="U8EF0f1NBM-hAYtEsByM-298">
          <mxGeometry relative="1" as="geometry">
            <Array as="points">
              <mxPoint x="273" y="264" />
            </Array>
          </mxGeometry>
        </mxCell>
        <mxCell id="U8EF0f1NBM-hAYtEsByM-319" value="인기_급상승_쇼츠" style="curved=1;startArrow=none;endArrow=block;exitX=0.23;exitY=0.99;entryX=0.5;entryY=0;rounded=0;" edge="1" parent="1" source="U8EF0f1NBM-hAYtEsByM-298" target="U8EF0f1NBM-hAYtEsByM-299">
          <mxGeometry relative="1" as="geometry">
            <Array as="points">
              <mxPoint x="102" y="357" />
            </Array>
          </mxGeometry>
        </mxCell>
        <mxCell id="U8EF0f1NBM-hAYtEsByM-320" value="최근_많이_구매한_상품" style="curved=1;startArrow=none;endArrow=block;exitX=1.01;exitY=0.94;entryX=0.5;entryY=0;rounded=0;" edge="1" parent="1" source="U8EF0f1NBM-hAYtEsByM-298" target="U8EF0f1NBM-hAYtEsByM-300">
          <mxGeometry relative="1" as="geometry">
            <Array as="points">
              <mxPoint x="371" y="357" />
            </Array>
          </mxGeometry>
        </mxCell>
        <mxCell id="U8EF0f1NBM-hAYtEsByM-321" value="" style="curved=1;startArrow=none;endArrow=block;exitX=0.5;exitY=0.99;entryX=0.5;entryY=-0.01;rounded=0;" edge="1" parent="1" source="U8EF0f1NBM-hAYtEsByM-299" target="U8EF0f1NBM-hAYtEsByM-301">
          <mxGeometry relative="1" as="geometry">
            <Array as="points" />
          </mxGeometry>
        </mxCell>
        <mxCell id="U8EF0f1NBM-hAYtEsByM-322" value="" style="curved=1;startArrow=none;endArrow=block;exitX=0.5;exitY=0.99;entryX=0.5;entryY=-0.01;rounded=0;" edge="1" parent="1" source="U8EF0f1NBM-hAYtEsByM-300" target="U8EF0f1NBM-hAYtEsByM-302">
          <mxGeometry relative="1" as="geometry">
            <Array as="points" />
          </mxGeometry>
        </mxCell>
        <mxCell id="U8EF0f1NBM-hAYtEsByM-323" value="책의_경우" style="curved=1;startArrow=none;endArrow=block;exitX=0.09;exitY=0.97;entryX=0.5;entryY=-0.01;rounded=0;" edge="1" parent="1" source="U8EF0f1NBM-hAYtEsByM-302" target="U8EF0f1NBM-hAYtEsByM-303">
          <mxGeometry relative="1" as="geometry">
            <Array as="points">
              <mxPoint x="165" y="542" />
            </Array>
          </mxGeometry>
        </mxCell>
        <mxCell id="U8EF0f1NBM-hAYtEsByM-324" value="책의_경우" style="curved=1;startArrow=none;endArrow=block;exitX=0.48;exitY=0.97;entryX=0.5;entryY=-0.01;rounded=0;" edge="1" parent="1" source="U8EF0f1NBM-hAYtEsByM-302" target="U8EF0f1NBM-hAYtEsByM-304">
          <mxGeometry relative="1" as="geometry">
            <Array as="points">
              <mxPoint x="362" y="542" />
            </Array>
          </mxGeometry>
        </mxCell>
        <mxCell id="U8EF0f1NBM-hAYtEsByM-325" value="" style="curved=1;startArrow=none;endArrow=block;exitX=0.5;exitY=0.97;entryX=0.06;entryY=0;rounded=0;" edge="1" parent="1" source="U8EF0f1NBM-hAYtEsByM-303" target="U8EF0f1NBM-hAYtEsByM-305">
          <mxGeometry relative="1" as="geometry">
            <Array as="points">
              <mxPoint x="165" y="635" />
            </Array>
          </mxGeometry>
        </mxCell>
        <mxCell id="U8EF0f1NBM-hAYtEsByM-326" value="" style="curved=1;startArrow=none;endArrow=block;exitX=0.5;exitY=0.97;entryX=0.75;entryY=0;rounded=0;" edge="1" parent="1" source="U8EF0f1NBM-hAYtEsByM-304" target="U8EF0f1NBM-hAYtEsByM-305">
          <mxGeometry relative="1" as="geometry">
            <Array as="points">
              <mxPoint x="362" y="635" />
            </Array>
          </mxGeometry>
        </mxCell>
        <mxCell id="U8EF0f1NBM-hAYtEsByM-327" value="" style="curved=1;startArrow=none;endArrow=block;exitX=0.5;exitY=0.99;entryX=0.2;entryY=-0.01;rounded=0;" edge="1" parent="1" source="U8EF0f1NBM-hAYtEsByM-305" target="U8EF0f1NBM-hAYtEsByM-306">
          <mxGeometry relative="1" as="geometry">
            <Array as="points">
              <mxPoint x="289" y="719" />
            </Array>
          </mxGeometry>
        </mxCell>
        <mxCell id="U8EF0f1NBM-hAYtEsByM-328" value="" style="curved=1;startArrow=none;endArrow=block;exitX=0.47;exitY=0.97;entryX=0.48;entryY=0;rounded=0;" edge="1" parent="1" source="U8EF0f1NBM-hAYtEsByM-306" target="U8EF0f1NBM-hAYtEsByM-307">
          <mxGeometry relative="1" as="geometry">
            <Array as="points">
              <mxPoint x="370" y="802" />
            </Array>
          </mxGeometry>
        </mxCell>
        <mxCell id="U8EF0f1NBM-hAYtEsByM-329" value="" style="curved=1;startArrow=none;endArrow=block;exitX=0.48;exitY=0.99;entryX=0.41;entryY=-0.01;rounded=0;" edge="1" parent="1" source="U8EF0f1NBM-hAYtEsByM-307" target="U8EF0f1NBM-hAYtEsByM-308">
          <mxGeometry relative="1" as="geometry">
            <Array as="points">
              <mxPoint x="370" y="886" />
            </Array>
          </mxGeometry>
        </mxCell>
        <mxCell id="U8EF0f1NBM-hAYtEsByM-330" value="" style="curved=1;startArrow=none;endArrow=block;exitX=0.41;exitY=0.97;entryX=0.48;entryY=0;rounded=0;" edge="1" parent="1" source="U8EF0f1NBM-hAYtEsByM-308" target="U8EF0f1NBM-hAYtEsByM-309">
          <mxGeometry relative="1" as="geometry">
            <Array as="points">
              <mxPoint x="370" y="969" />
            </Array>
          </mxGeometry>
        </mxCell>
        <mxCell id="U8EF0f1NBM-hAYtEsByM-332" value="" style="curved=1;startArrow=none;endArrow=block;exitX=0.6;exitY=0.99;entryX=0.24;entryY=0;rounded=0;" edge="1" parent="1" source="U8EF0f1NBM-hAYtEsByM-309" target="U8EF0f1NBM-hAYtEsByM-311">
          <mxGeometry relative="1" as="geometry">
            <Array as="points">
              <mxPoint x="431" y="1062" />
            </Array>
          </mxGeometry>
        </mxCell>
        <mxCell id="U8EF0f1NBM-hAYtEsByM-333" value="다른_상품의_경우" style="curved=1;startArrow=none;endArrow=block;exitX=0.81;exitY=0.97;entryX=0.5;entryY=-0.01;rounded=0;" edge="1" parent="1" source="U8EF0f1NBM-hAYtEsByM-302" target="U8EF0f1NBM-hAYtEsByM-312">
          <mxGeometry relative="1" as="geometry">
            <Array as="points">
              <mxPoint x="524" y="542" />
            </Array>
          </mxGeometry>
        </mxCell>
        <mxCell id="U8EF0f1NBM-hAYtEsByM-334" value="" style="curved=1;startArrow=none;endArrow=block;exitX=0.5;exitY=0.97;entryX=0.5;entryY=0;rounded=0;" edge="1" parent="1" source="U8EF0f1NBM-hAYtEsByM-312" target="U8EF0f1NBM-hAYtEsByM-313">
          <mxGeometry relative="1" as="geometry">
            <Array as="points" />
          </mxGeometry>
        </mxCell>
        <mxCell id="U8EF0f1NBM-hAYtEsByM-335" value="" style="curved=1;startArrow=none;endArrow=block;exitX=0.5;exitY=0.99;entryX=0.99;entryY=-0.01;rounded=0;" edge="1" parent="1" source="U8EF0f1NBM-hAYtEsByM-313" target="U8EF0f1NBM-hAYtEsByM-306">
          <mxGeometry relative="1" as="geometry">
            <Array as="points">
              <mxPoint x="524" y="719" />
            </Array>
          </mxGeometry>
        </mxCell>
        <mxCell id="U8EF0f1NBM-hAYtEsByM-339" value="영상리뷰의_경우" style="curved=1;startArrow=none;endArrow=block;exitX=0.43;exitY=0.99;entryX=0.55;entryY=0;rounded=0;" edge="1" parent="1" source="U8EF0f1NBM-hAYtEsByM-309" target="U8EF0f1NBM-hAYtEsByM-310">
          <mxGeometry x="0.0051" relative="1" as="geometry">
            <Array as="points">
              <mxPoint x="346" y="1062" />
            </Array>
            <mxPoint as="offset" />
          </mxGeometry>
        </mxCell>
      </root>
    </mxGraphModel>
  </diagram>
</mxfile>
